<svg viewBox="0 0 26 26"><style>.a{fill:#030104;}</style><path d="M20 7c-0.6 0-1-0.4-1-1V4c0-0.6 0.4-1 1-1h2c0.6 0 1 0.4 1 1v2c0 0.6-0.4 1-1 1H20z" class="a"/><path d="M13 9.2c-0.7 0-1.4 0.2-2 0.6 0.2-0.1 0.4-0.1 0.6-0.1 1.1 0 1.9 0.9 1.9 1.9 0 1.1-0.9 1.9-1.9 1.9s-1.9-0.9-1.9-1.9c0-0.2 0-0.4 0.1-0.6C9.4 11.6 9.2 12.3 9.2 13c0 2.1 1.7 3.8 3.8 3.8 2.1 0 3.8-1.7 3.8-3.8S15.1 9.2 13 9.2z" class="a"/><path d="M13 7c3.3 0 6 2.7 6 6s-2.7 6-6 6c-3.3 0-6-2.7-6-6S9.7 7 13 7M13 5c-4.4 0-8 3.6-8 8s3.6 8 8 8 8-3.6 8-8S17.4 5 13 5L13 5z" class="a"/><path d="M21.1 0H4.9C2.2 0 0 2.2 0 4.9v16.3C0 23.8 2.2 26 4.9 26h16.3C23.8 26 26 23.8 26 21.1V4.9C26 2.2 23.8 0 21.1 0zM24 9h-6.5C18.4 10.1 19 11.5 19 13c0 3.3-2.7 6-6 6 -3.3 0-6-2.7-6-6 0-1.5 0.6-2.9 1.5-4H2V4.9C2 3.3 3.3 2 4.9 2h16.3C22.7 2 24 3.3 24 4.9V9z" class="a"/></svg>