<svg xmlns="http://www.w3.org/2000/svg" viewBox="0 0 53 53" width="512" height="512"><style>.a{fill:#FFF;}</style><path d="M29 20h-6v-6c0-0.6-0.4-1-1-1s-1 0.4-1 1v6h-6c-0.6 0-1 0.4-1 1s0.4 1 1 1h6v6c0 0.6 0.4 1 1 1s1-0.4 1-1v-6h6c0.6 0 1-0.4 1-1S29.5 20 29 20z" class="a"/><path d="M51.7 51.3L36.8 35.8c3.8-3.8 6.1-9 6.1-14.8 0-11.6-9.4-21-21-21s-21 9.4-21 21 9.4 21 21 21c5.1 0 9.7-1.8 13.4-4.8l14.9 15.5c0.2 0.2 0.5 0.3 0.7 0.3 0.3 0 0.5-0.1 0.7-0.3C52.1 52.3 52.1 51.7 51.7 51.3zM3 21c0-10.5 8.5-19 19-19s19 8.5 19 19 -8.5 19-19 19S3 31.5 3 21z" class="a"/></svg>